<svg width="900" height="230" viewBox="0 0 900 230" fill="none" xmlns="http://www.w3.org/2000/svg">
<rect width="900" height="230" fill="url(#paint0_linear_2_2)"/>
<path d="M416.203 65V47.48H420.859L425.251 57.944H425.683L430.051 47.48H434.779V65H431.395V50.048L431.827 50.096L427.099 61.424H423.619L418.867 50.096L419.323 50.048V65H416.203ZM446.733 65V61.136H446.181V56.84C446.181 56.088 445.997 55.528 445.629 55.16C445.261 54.792 444.693 54.608 443.925 54.608C443.525 54.608 443.045 54.616 442.485 54.632C441.925 54.648 441.357 54.672 440.781 54.704C440.221 54.72 439.717 54.744 439.269 54.776V51.944C439.637 51.912 440.053 51.88 440.517 51.848C440.981 51.816 441.453 51.8 441.933 51.8C442.429 51.784 442.893 51.776 443.325 51.776C444.669 51.776 445.781 51.952 446.661 52.304C447.557 52.656 448.229 53.208 448.677 53.96C449.141 54.712 449.373 55.696 449.373 56.912V65H446.733ZM442.533 65.336C441.589 65.336 440.757 65.168 440.037 64.832C439.333 64.496 438.781 64.016 438.381 63.392C437.997 62.768 437.805 62.016 437.805 61.136C437.805 60.176 438.037 59.392 438.501 58.784C438.981 58.176 439.645 57.72 440.493 57.416C441.357 57.112 442.365 56.96 443.517 56.96H446.541V58.952H443.469C442.701 58.952 442.109 59.144 441.693 59.528C441.293 59.896 441.093 60.376 441.093 60.968C441.093 61.56 441.293 62.04 441.693 62.408C442.109 62.776 442.701 62.96 443.469 62.96C443.933 62.96 444.357 62.88 444.741 62.72C445.141 62.544 445.469 62.256 445.725 61.856C445.997 61.44 446.149 60.88 446.181 60.176L446.997 61.112C446.917 62.024 446.693 62.792 446.325 63.416C445.973 64.04 445.477 64.52 444.837 64.856C444.213 65.176 443.445 65.336 442.533 65.336ZM457.675 65.408C455.883 65.408 454.475 65.032 453.451 64.28C452.443 63.512 451.915 62.456 451.867 61.112H454.867C454.915 61.56 455.163 61.968 455.611 62.336C456.059 62.704 456.763 62.888 457.723 62.888C458.523 62.888 459.155 62.744 459.619 62.456C460.099 62.168 460.339 61.776 460.339 61.28C460.339 60.848 460.155 60.504 459.787 60.248C459.435 59.992 458.827 59.824 457.963 59.744L456.811 59.624C455.355 59.464 454.235 59.048 453.451 58.376C452.667 57.704 452.275 56.808 452.275 55.688C452.275 54.792 452.499 54.04 452.947 53.432C453.395 52.824 454.011 52.368 454.795 52.064C455.595 51.744 456.507 51.584 457.531 51.584C459.131 51.584 460.427 51.936 461.419 52.64C462.411 53.344 462.931 54.376 462.979 55.736H459.979C459.947 55.288 459.723 54.904 459.307 54.584C458.891 54.264 458.291 54.104 457.507 54.104C456.803 54.104 456.259 54.24 455.875 54.512C455.491 54.784 455.299 55.136 455.299 55.568C455.299 55.984 455.451 56.304 455.755 56.528C456.075 56.752 456.587 56.904 457.291 56.984L458.443 57.104C459.979 57.264 461.179 57.688 462.043 58.376C462.923 59.064 463.363 59.992 463.363 61.16C463.363 62.024 463.123 62.776 462.643 63.416C462.179 64.04 461.523 64.528 460.675 64.88C459.827 65.232 458.827 65.408 457.675 65.408ZM472.383 65.456C471.231 65.456 470.215 65.272 469.335 64.904C468.455 64.536 467.711 64.04 467.103 63.416C466.495 62.776 466.031 62.056 465.711 61.256C465.407 60.456 465.255 59.624 465.255 58.76V58.256C465.255 57.36 465.415 56.512 465.735 55.712C466.071 54.896 466.543 54.176 467.151 53.552C467.775 52.912 468.527 52.416 469.407 52.064C470.287 51.696 471.279 51.512 472.383 51.512C473.487 51.512 474.479 51.696 475.359 52.064C476.239 52.416 476.983 52.912 477.591 53.552C478.215 54.176 478.687 54.896 479.007 55.712C479.327 56.512 479.487 57.36 479.487 58.256V58.76C479.487 59.624 479.327 60.456 479.007 61.256C478.703 62.056 478.247 62.776 477.639 63.416C477.031 64.04 476.287 64.536 475.407 64.904C474.527 65.272 473.519 65.456 472.383 65.456ZM472.383 62.6C473.199 62.6 473.887 62.424 474.447 62.072C475.007 61.704 475.431 61.216 475.719 60.608C476.007 59.984 476.151 59.28 476.151 58.496C476.151 57.696 475.999 56.992 475.695 56.384C475.407 55.76 474.975 55.272 474.399 54.92C473.839 54.552 473.167 54.368 472.383 54.368C471.599 54.368 470.919 54.552 470.343 54.92C469.783 55.272 469.351 55.76 469.047 56.384C468.743 56.992 468.591 57.696 468.591 58.496C468.591 59.28 468.735 59.984 469.023 60.608C469.327 61.216 469.759 61.704 470.319 62.072C470.879 62.424 471.567 62.6 472.383 62.6ZM482.408 65V51.968H485.048V57.56H484.808C484.808 56.232 484.984 55.128 485.336 54.248C485.688 53.352 486.208 52.68 486.896 52.232C487.6 51.784 488.472 51.56 489.512 51.56H489.656C491.208 51.56 492.384 52.064 493.184 53.072C493.984 54.064 494.384 55.552 494.384 57.536V65H491.048V57.248C491.048 56.448 490.816 55.8 490.352 55.304C489.904 54.808 489.28 54.56 488.48 54.56C487.664 54.56 487 54.816 486.488 55.328C485.992 55.824 485.744 56.496 485.744 57.344V65H482.408ZM497.97 65V51.968H500.61V57.488H500.538C500.538 55.616 500.938 54.2 501.738 53.24C502.538 52.28 503.714 51.8 505.266 51.8H505.746V54.704H504.834C503.714 54.704 502.842 55.008 502.218 55.616C501.61 56.208 501.306 57.072 501.306 58.208V65H497.97ZM507.992 70.136V67.28H510.44C510.904 67.28 511.288 67.216 511.592 67.088C511.912 66.976 512.176 66.784 512.384 66.512C512.592 66.256 512.752 65.896 512.864 65.432L516.368 51.968H519.56L515.696 66.152C515.44 67.128 515.08 67.904 514.616 68.48C514.152 69.072 513.552 69.496 512.816 69.752C512.096 70.008 511.2 70.136 510.128 70.136H507.992ZM512.048 64.712V62.072H514.832V64.712H512.048ZM510.92 64.712L506.696 51.968H510.056L514.064 64.712H510.92Z" fill="white"/>
<path d="M348.096 182V160.1H352.356V182H348.096ZM351.756 182V178.25H361.206V182H351.756ZM374.218 182V177.17H373.528V171.8C373.528 170.86 373.298 170.16 372.838 169.7C372.378 169.24 371.668 169.01 370.708 169.01C370.208 169.01 369.608 169.02 368.908 169.04C368.208 169.06 367.498 169.09 366.778 169.13C366.078 169.15 365.448 169.18 364.888 169.22V165.68C365.348 165.64 365.868 165.6 366.448 165.56C367.028 165.52 367.618 165.5 368.218 165.5C368.838 165.48 369.418 165.47 369.958 165.47C371.638 165.47 373.028 165.69 374.128 166.13C375.248 166.57 376.088 167.26 376.648 168.2C377.228 169.14 377.518 170.37 377.518 171.89V182H374.218ZM368.968 182.42C367.788 182.42 366.748 182.21 365.848 181.79C364.968 181.37 364.278 180.77 363.778 179.99C363.298 179.21 363.058 178.27 363.058 177.17C363.058 175.97 363.348 174.99 363.928 174.23C364.528 173.47 365.358 172.9 366.418 172.52C367.498 172.14 368.758 171.95 370.198 171.95H373.978V174.44H370.138C369.178 174.44 368.438 174.68 367.918 175.16C367.418 175.62 367.168 176.22 367.168 176.96C367.168 177.7 367.418 178.3 367.918 178.76C368.438 179.22 369.178 179.45 370.138 179.45C370.718 179.45 371.248 179.35 371.728 179.15C372.228 178.93 372.638 178.57 372.958 178.07C373.298 177.55 373.488 176.85 373.528 175.97L374.548 177.14C374.448 178.28 374.168 179.24 373.708 180.02C373.268 180.8 372.648 181.4 371.848 181.82C371.068 182.22 370.108 182.42 368.968 182.42ZM381.299 188.42V184.85H384.359C384.939 184.85 385.419 184.77 385.799 184.61C386.199 184.47 386.529 184.23 386.789 183.89C387.049 183.57 387.249 183.12 387.389 182.54L391.769 165.71H395.759L390.929 183.44C390.609 184.66 390.159 185.63 389.579 186.35C388.999 187.09 388.249 187.62 387.329 187.94C386.429 188.26 385.309 188.42 383.969 188.42H381.299ZM386.369 181.64V178.34H389.849V181.64H386.369ZM384.959 181.64L379.679 165.71H383.879L388.889 181.64H384.959ZM406.103 182.57C404.663 182.57 403.393 182.34 402.293 181.88C401.193 181.42 400.263 180.8 399.503 180.02C398.743 179.22 398.163 178.32 397.763 177.32C397.383 176.32 397.193 175.28 397.193 174.2V173.57C397.193 172.45 397.393 171.39 397.793 170.39C398.213 169.37 398.803 168.47 399.563 167.69C400.343 166.89 401.283 166.27 402.383 165.83C403.483 165.37 404.723 165.14 406.103 165.14C407.483 165.14 408.723 165.37 409.823 165.83C410.923 166.27 411.853 166.89 412.613 167.69C413.393 168.47 413.983 169.37 414.383 170.39C414.783 171.39 414.983 172.45 414.983 173.57V174.2C414.983 175.28 414.783 176.32 414.383 177.32C414.003 178.32 413.433 179.22 412.673 180.02C411.913 180.8 410.983 181.42 409.883 181.88C408.783 182.34 407.523 182.57 406.103 182.57ZM406.103 179C407.123 179 407.983 178.78 408.683 178.34C409.383 177.88 409.913 177.27 410.273 176.51C410.633 175.73 410.813 174.85 410.813 173.87C410.813 172.87 410.623 171.99 410.243 171.23C409.883 170.45 409.343 169.84 408.623 169.4C407.923 168.94 407.083 168.71 406.103 168.71C405.123 168.71 404.273 168.94 403.553 169.4C402.853 169.84 402.313 170.45 401.933 171.23C401.553 171.99 401.363 172.87 401.363 173.87C401.363 174.85 401.543 175.73 401.903 176.51C402.283 177.27 402.823 177.88 403.523 178.34C404.223 178.78 405.083 179 406.103 179ZM424.185 182.51C422.305 182.51 420.845 181.89 419.805 180.65C418.785 179.41 418.275 177.57 418.275 175.13V165.68H422.445V175.49C422.445 176.49 422.725 177.29 423.285 177.89C423.845 178.47 424.605 178.76 425.565 178.76C426.525 178.76 427.305 178.45 427.905 177.83C428.525 177.21 428.835 176.37 428.835 175.31V165.68H433.005V182H429.705V175.07H430.035C430.035 176.71 429.825 178.08 429.405 179.18C428.985 180.28 428.355 181.11 427.515 181.67C426.675 182.23 425.625 182.51 424.365 182.51H424.185ZM444.875 182.21C443.375 182.21 442.135 182.02 441.155 181.64C440.195 181.24 439.475 180.58 438.995 179.66C438.515 178.72 438.275 177.46 438.275 175.88L438.305 161.12H442.205L442.175 176.15C442.175 176.95 442.385 177.57 442.805 178.01C443.245 178.43 443.865 178.64 444.665 178.64H447.215V182.21H444.875ZM435.695 168.77V165.71H447.215V168.77H435.695ZM457.399 182V160.1H461.569V182H457.399ZM455.359 163.22V160.1H461.569V163.22H455.359ZM467.11 182V165.71H471.28V182H467.11ZM464.83 168.83V165.71H471.28V168.83H464.83ZM468.64 163.76C467.82 163.76 467.21 163.55 466.81 163.13C466.43 162.69 466.24 162.15 466.24 161.51C466.24 160.83 466.43 160.28 466.81 159.86C467.21 159.44 467.82 159.23 468.64 159.23C469.46 159.23 470.06 159.44 470.44 159.86C470.82 160.28 471.01 160.83 471.01 161.51C471.01 162.15 470.82 162.69 470.44 163.13C470.06 163.55 469.46 163.76 468.64 163.76ZM485.656 182.54C484.316 182.54 483.136 182.26 482.116 181.7C481.096 181.12 480.296 180.28 479.716 179.18C479.136 178.08 478.816 176.75 478.756 175.19H479.386V182H476.086V160.1H480.256V171.05L479.146 172.76C479.226 171.08 479.556 169.68 480.136 168.56C480.736 167.44 481.536 166.6 482.536 166.04C483.536 165.48 484.666 165.2 485.926 165.2C487.046 165.2 488.066 165.41 488.986 165.83C489.906 166.25 490.696 166.84 491.356 167.6C492.016 168.34 492.516 169.21 492.856 170.21C493.216 171.21 493.396 172.3 493.396 173.48V174.11C493.396 175.29 493.216 176.39 492.856 177.41C492.496 178.43 491.976 179.33 491.296 180.11C490.616 180.87 489.796 181.47 488.836 181.91C487.896 182.33 486.836 182.54 485.656 182.54ZM484.726 179.03C485.626 179.03 486.406 178.81 487.066 178.37C487.746 177.91 488.276 177.29 488.656 176.51C489.036 175.73 489.226 174.83 489.226 173.81C489.226 172.77 489.036 171.87 488.656 171.11C488.276 170.35 487.746 169.76 487.066 169.34C486.406 168.92 485.626 168.71 484.726 168.71C483.906 168.71 483.146 168.89 482.446 169.25C481.766 169.61 481.206 170.14 480.766 170.84C480.346 171.54 480.136 172.38 480.136 173.36V174.56C480.136 175.5 480.356 176.3 480.796 176.96C481.236 177.62 481.806 178.13 482.506 178.49C483.206 178.85 483.946 179.03 484.726 179.03ZM497.062 182V165.71H500.362V172.61H500.272C500.272 170.27 500.772 168.5 501.772 167.3C502.772 166.1 504.242 165.5 506.182 165.5H506.782V169.13H505.642C504.242 169.13 503.152 169.51 502.372 170.27C501.612 171.01 501.232 172.09 501.232 173.51V182H497.062ZM519.354 182V177.17H518.664V171.8C518.664 170.86 518.434 170.16 517.974 169.7C517.514 169.24 516.804 169.01 515.844 169.01C515.344 169.01 514.744 169.02 514.044 169.04C513.344 169.06 512.634 169.09 511.914 169.13C511.214 169.15 510.584 169.18 510.024 169.22V165.68C510.484 165.64 511.004 165.6 511.584 165.56C512.164 165.52 512.754 165.5 513.354 165.5C513.974 165.48 514.554 165.47 515.094 165.47C516.774 165.47 518.164 165.69 519.264 166.13C520.384 166.57 521.224 167.26 521.784 168.2C522.364 169.14 522.654 170.37 522.654 171.89V182H519.354ZM514.104 182.42C512.924 182.42 511.884 182.21 510.984 181.79C510.104 181.37 509.414 180.77 508.914 179.99C508.434 179.21 508.194 178.27 508.194 177.17C508.194 175.97 508.484 174.99 509.064 174.23C509.664 173.47 510.494 172.9 511.554 172.52C512.634 172.14 513.894 171.95 515.334 171.95H519.114V174.44H515.274C514.314 174.44 513.574 174.68 513.054 175.16C512.554 175.62 512.304 176.22 512.304 176.96C512.304 177.7 512.554 178.3 513.054 178.76C513.574 179.22 514.314 179.45 515.274 179.45C515.854 179.45 516.384 179.35 516.864 179.15C517.364 178.93 517.774 178.57 518.094 178.07C518.434 177.55 518.624 176.85 518.664 175.97L519.684 177.14C519.584 178.28 519.304 179.24 518.844 180.02C518.404 180.8 517.784 181.4 516.984 181.82C516.204 182.22 515.244 182.42 514.104 182.42ZM527.121 182V165.71H530.421V172.61H530.331C530.331 170.27 530.831 168.5 531.831 167.3C532.831 166.1 534.301 165.5 536.241 165.5H536.841V169.13H535.701C534.301 169.13 533.211 169.51 532.431 170.27C531.671 171.01 531.291 172.09 531.291 173.51V182H527.121ZM539.649 188.42V184.85H542.709C543.289 184.85 543.769 184.77 544.149 184.61C544.549 184.47 544.879 184.23 545.139 183.89C545.399 183.57 545.599 183.12 545.739 182.54L550.119 165.71H554.109L549.279 183.44C548.959 184.66 548.509 185.63 547.929 186.35C547.349 187.09 546.599 187.62 545.679 187.94C544.779 188.26 543.659 188.42 542.319 188.42H539.649ZM544.719 181.64V178.34H548.199V181.64H544.719ZM543.309 181.64L538.029 165.71H542.229L547.239 181.64H543.309Z" fill="white"/>
<path d="M315.43 144V125.25H319.69V144H315.43ZM309.1 125.85V122.1H326.02V125.85H309.1ZM329.091 144V122.1H333.261V134.88H332.541C332.541 133.24 332.751 131.85 333.171 130.71C333.591 129.57 334.211 128.7 335.031 128.1C335.871 127.5 336.931 127.2 338.211 127.2H338.391C340.251 127.2 341.661 127.84 342.621 129.12C343.581 130.4 344.061 132.26 344.061 134.7V144H339.891V134.31C339.891 133.27 339.591 132.45 338.991 131.85C338.411 131.25 337.641 130.95 336.681 130.95C335.661 130.95 334.831 131.29 334.191 131.97C333.571 132.63 333.261 133.5 333.261 134.58V144H329.091ZM355.834 144.57C354.434 144.57 353.204 144.33 352.144 143.85C351.104 143.37 350.234 142.73 349.534 141.93C348.854 141.11 348.334 140.2 347.974 139.2C347.634 138.2 347.464 137.18 347.464 136.14V135.57C347.464 134.49 347.634 133.45 347.974 132.45C348.334 131.43 348.854 130.53 349.534 129.75C350.234 128.95 351.094 128.32 352.114 127.86C353.134 127.38 354.314 127.14 355.654 127.14C357.414 127.14 358.884 127.53 360.064 128.31C361.264 129.07 362.164 130.08 362.764 131.34C363.364 132.58 363.664 133.92 363.664 135.36V136.86H349.234V134.31H361.054L359.764 135.57C359.764 134.53 359.614 133.64 359.314 132.9C359.014 132.16 358.554 131.59 357.934 131.19C357.334 130.79 356.574 130.59 355.654 130.59C354.734 130.59 353.954 130.8 353.314 131.22C352.674 131.64 352.184 132.25 351.844 133.05C351.524 133.83 351.364 134.77 351.364 135.87C351.364 136.89 351.524 137.8 351.844 138.6C352.164 139.38 352.654 140 353.314 140.46C353.974 140.9 354.814 141.12 355.834 141.12C356.854 141.12 357.684 140.92 358.324 140.52C358.964 140.1 359.374 139.59 359.554 138.99H363.394C363.154 140.11 362.694 141.09 362.014 141.93C361.334 142.77 360.464 143.42 359.404 143.88C358.364 144.34 357.174 144.57 355.834 144.57ZM377.612 137.28V133.59H381.872C382.732 133.59 383.452 133.42 384.032 133.08C384.632 132.74 385.082 132.27 385.382 131.67C385.702 131.07 385.862 130.38 385.862 129.6C385.862 128.82 385.702 128.13 385.382 127.53C385.082 126.93 384.632 126.47 384.032 126.15C383.452 125.81 382.732 125.64 381.872 125.64H377.612V121.95H381.512C383.352 121.95 384.912 122.25 386.192 122.85C387.492 123.45 388.482 124.31 389.162 125.43C389.842 126.53 390.182 127.84 390.182 129.36V129.84C390.182 131.36 389.842 132.68 389.162 133.8C388.482 134.9 387.492 135.76 386.192 136.38C384.912 136.98 383.352 137.28 381.512 137.28H377.612ZM373.952 144V121.95H378.212V144H373.952ZM394.265 144V127.71H398.435V144H394.265ZM391.985 130.83V127.71H398.435V130.83H391.985ZM395.795 125.76C394.975 125.76 394.365 125.55 393.965 125.13C393.585 124.69 393.395 124.15 393.395 123.51C393.395 122.83 393.585 122.28 393.965 121.86C394.365 121.44 394.975 121.23 395.795 121.23C396.615 121.23 397.215 121.44 397.595 121.86C397.975 122.28 398.165 122.83 398.165 123.51C398.165 124.15 397.975 124.69 397.595 125.13C397.215 125.55 396.615 125.76 395.795 125.76ZM403.241 144V127.71H406.541V134.7H406.241C406.241 133.04 406.461 131.66 406.901 130.56C407.341 129.44 407.991 128.6 408.851 128.04C409.731 127.48 410.821 127.2 412.121 127.2H412.301C414.241 127.2 415.711 127.83 416.711 129.09C417.711 130.33 418.211 132.19 418.211 134.67V144H414.041V134.31C414.041 133.31 413.751 132.5 413.171 131.88C412.611 131.26 411.831 130.95 410.831 130.95C409.811 130.95 408.981 131.27 408.341 131.91C407.721 132.53 407.411 133.37 407.411 134.43V144H403.241ZM429.774 144.21C428.274 144.21 427.034 144.02 426.054 143.64C425.094 143.24 424.374 142.58 423.894 141.66C423.414 140.72 423.174 139.46 423.174 137.88L423.204 123.12H427.104L427.074 138.15C427.074 138.95 427.284 139.57 427.704 140.01C428.144 140.43 428.764 140.64 429.564 140.64H432.114V144.21H429.774ZM420.594 130.77V127.71H432.114V130.77H420.594ZM442.816 144.57C441.416 144.57 440.186 144.33 439.126 143.85C438.086 143.37 437.216 142.73 436.516 141.93C435.836 141.11 435.316 140.2 434.956 139.2C434.616 138.2 434.446 137.18 434.446 136.14V135.57C434.446 134.49 434.616 133.45 434.956 132.45C435.316 131.43 435.836 130.53 436.516 129.75C437.216 128.95 438.076 128.32 439.096 127.86C440.116 127.38 441.296 127.14 442.636 127.14C444.396 127.14 445.866 127.53 447.046 128.31C448.246 129.07 449.146 130.08 449.746 131.34C450.346 132.58 450.646 133.92 450.646 135.36V136.86H436.216V134.31H448.036L446.746 135.57C446.746 134.53 446.596 133.64 446.296 132.9C445.996 132.16 445.536 131.59 444.916 131.19C444.316 130.79 443.556 130.59 442.636 130.59C441.716 130.59 440.936 130.8 440.296 131.22C439.656 131.64 439.166 132.25 438.826 133.05C438.506 133.83 438.346 134.77 438.346 135.87C438.346 136.89 438.506 137.8 438.826 138.6C439.146 139.38 439.636 140 440.296 140.46C440.956 140.9 441.796 141.12 442.816 141.12C443.836 141.12 444.666 140.92 445.306 140.52C445.946 140.1 446.356 139.59 446.536 138.99H450.376C450.136 140.11 449.676 141.09 448.996 141.93C448.316 142.77 447.446 143.42 446.386 143.88C445.346 144.34 444.156 144.57 442.816 144.57ZM454.13 144V127.71H457.43V134.61H457.34C457.34 132.27 457.84 130.5 458.84 129.3C459.84 128.1 461.31 127.5 463.25 127.5H463.85V131.13H462.71C461.31 131.13 460.22 131.51 459.44 132.27C458.68 133.01 458.3 134.09 458.3 135.51V144H454.13ZM473.812 144.57C472.412 144.57 471.182 144.33 470.122 143.85C469.082 143.37 468.212 142.73 467.512 141.93C466.832 141.11 466.312 140.2 465.952 139.2C465.612 138.2 465.442 137.18 465.442 136.14V135.57C465.442 134.49 465.612 133.45 465.952 132.45C466.312 131.43 466.832 130.53 467.512 129.75C468.212 128.95 469.072 128.32 470.092 127.86C471.112 127.38 472.292 127.14 473.632 127.14C475.392 127.14 476.862 127.53 478.042 128.31C479.242 129.07 480.142 130.08 480.742 131.34C481.342 132.58 481.642 133.92 481.642 135.36V136.86H467.212V134.31H479.032L477.742 135.57C477.742 134.53 477.592 133.64 477.292 132.9C476.992 132.16 476.532 131.59 475.912 131.19C475.312 130.79 474.552 130.59 473.632 130.59C472.712 130.59 471.932 130.8 471.292 131.22C470.652 131.64 470.162 132.25 469.822 133.05C469.502 133.83 469.342 134.77 469.342 135.87C469.342 136.89 469.502 137.8 469.822 138.6C470.142 139.38 470.632 140 471.292 140.46C471.952 140.9 472.792 141.12 473.812 141.12C474.832 141.12 475.662 140.92 476.302 140.52C476.942 140.1 477.352 139.59 477.532 138.99H481.372C481.132 140.11 480.672 141.09 479.992 141.93C479.312 142.77 478.442 143.42 477.382 143.88C476.342 144.34 475.152 144.57 473.812 144.57ZM491.036 144.51C488.796 144.51 487.036 144.04 485.756 143.1C484.496 142.14 483.836 140.82 483.776 139.14H487.526C487.586 139.7 487.896 140.21 488.456 140.67C489.016 141.13 489.896 141.36 491.096 141.36C492.096 141.36 492.886 141.18 493.466 140.82C494.066 140.46 494.366 139.97 494.366 139.35C494.366 138.81 494.136 138.38 493.676 138.06C493.236 137.74 492.476 137.53 491.396 137.43L489.956 137.28C488.136 137.08 486.736 136.56 485.756 135.72C484.776 134.88 484.286 133.76 484.286 132.36C484.286 131.24 484.566 130.3 485.126 129.54C485.686 128.78 486.456 128.21 487.436 127.83C488.436 127.43 489.576 127.23 490.856 127.23C492.856 127.23 494.476 127.67 495.716 128.55C496.956 129.43 497.606 130.72 497.666 132.42H493.916C493.876 131.86 493.596 131.38 493.076 130.98C492.556 130.58 491.806 130.38 490.826 130.38C489.946 130.38 489.266 130.55 488.786 130.89C488.306 131.23 488.066 131.67 488.066 132.21C488.066 132.73 488.256 133.13 488.636 133.41C489.036 133.69 489.676 133.88 490.556 133.98L491.996 134.13C493.916 134.33 495.416 134.86 496.496 135.72C497.596 136.58 498.146 137.74 498.146 139.2C498.146 140.28 497.846 141.22 497.246 142.02C496.666 142.8 495.846 143.41 494.786 143.85C493.726 144.29 492.476 144.51 491.036 144.51ZM508.671 144.21C507.171 144.21 505.931 144.02 504.951 143.64C503.991 143.24 503.271 142.58 502.791 141.66C502.311 140.72 502.071 139.46 502.071 137.88L502.101 123.12H506.001L505.971 138.15C505.971 138.95 506.181 139.57 506.601 140.01C507.041 140.43 507.661 140.64 508.461 140.64H511.011V144.21H508.671ZM499.491 130.77V127.71H511.011V130.77H499.491ZM526.895 144.51C524.655 144.51 522.895 144.04 521.615 143.1C520.355 142.14 519.695 140.82 519.635 139.14H523.385C523.445 139.7 523.755 140.21 524.315 140.67C524.875 141.13 525.755 141.36 526.955 141.36C527.955 141.36 528.745 141.18 529.325 140.82C529.925 140.46 530.225 139.97 530.225 139.35C530.225 138.81 529.995 138.38 529.535 138.06C529.095 137.74 528.335 137.53 527.255 137.43L525.815 137.28C523.995 137.08 522.595 136.56 521.615 135.72C520.635 134.88 520.145 133.76 520.145 132.36C520.145 131.24 520.425 130.3 520.985 129.54C521.545 128.78 522.315 128.21 523.295 127.83C524.295 127.43 525.435 127.23 526.715 127.23C528.715 127.23 530.335 127.67 531.575 128.55C532.815 129.43 533.465 130.72 533.525 132.42H529.775C529.735 131.86 529.455 131.38 528.935 130.98C528.415 130.58 527.665 130.38 526.685 130.38C525.805 130.38 525.125 130.55 524.645 130.89C524.165 131.23 523.925 131.67 523.925 132.21C523.925 132.73 524.115 133.13 524.495 133.41C524.895 133.69 525.535 133.88 526.415 133.98L527.855 134.13C529.775 134.33 531.275 134.86 532.355 135.72C533.455 136.58 534.005 137.74 534.005 139.2C534.005 140.28 533.705 141.22 533.105 142.02C532.525 142.8 531.705 143.41 530.645 143.85C529.585 144.29 528.335 144.51 526.895 144.51ZM544.53 144.21C543.03 144.21 541.79 144.02 540.81 143.64C539.85 143.24 539.13 142.58 538.65 141.66C538.17 140.72 537.93 139.46 537.93 137.88L537.96 123.12H541.86L541.83 138.15C541.83 138.95 542.04 139.57 542.46 140.01C542.9 140.43 543.52 140.64 544.32 140.64H546.87V144.21H544.53ZM535.35 130.77V127.71H546.87V130.77H535.35ZM549.89 150.42V146.85H552.95C553.53 146.85 554.01 146.77 554.39 146.61C554.79 146.47 555.12 146.23 555.38 145.89C555.64 145.57 555.84 145.12 555.98 144.54L560.36 127.71H564.35L559.52 145.44C559.2 146.66 558.75 147.63 558.17 148.35C557.59 149.09 556.84 149.62 555.92 149.94C555.02 150.26 553.9 150.42 552.56 150.42H549.89ZM554.96 143.64V140.34H558.44V143.64H554.96ZM553.55 143.64L548.27 127.71H552.47L557.48 143.64H553.55ZM567.426 144V122.1H571.596V144H567.426ZM565.386 125.22V122.1H571.596V125.22H565.386ZM583.646 144.57C582.246 144.57 581.016 144.33 579.956 143.85C578.916 143.37 578.046 142.73 577.346 141.93C576.666 141.11 576.146 140.2 575.786 139.2C575.446 138.2 575.276 137.18 575.276 136.14V135.57C575.276 134.49 575.446 133.45 575.786 132.45C576.146 131.43 576.666 130.53 577.346 129.75C578.046 128.95 578.906 128.32 579.926 127.86C580.946 127.38 582.126 127.14 583.466 127.14C585.226 127.14 586.696 127.53 587.876 128.31C589.076 129.07 589.976 130.08 590.576 131.34C591.176 132.58 591.476 133.92 591.476 135.36V136.86H577.046V134.31H588.866L587.576 135.57C587.576 134.53 587.426 133.64 587.126 132.9C586.826 132.16 586.366 131.59 585.746 131.19C585.146 130.79 584.386 130.59 583.466 130.59C582.546 130.59 581.766 130.8 581.126 131.22C580.486 131.64 579.996 132.25 579.656 133.05C579.336 133.83 579.176 134.77 579.176 135.87C579.176 136.89 579.336 137.8 579.656 138.6C579.976 139.38 580.466 140 581.126 140.46C581.786 140.9 582.626 141.12 583.646 141.12C584.666 141.12 585.496 140.92 586.136 140.52C586.776 140.1 587.186 139.59 587.366 138.99H591.206C590.966 140.11 590.506 141.09 589.826 141.93C589.146 142.77 588.276 143.42 587.216 143.88C586.176 144.34 584.986 144.57 583.646 144.57Z" fill="#00DCB3"/>
<rect x="371" y="38" width="8.81481" height="7.80741" rx="2" fill="#67B6FF"/>
<rect x="393.667" y="38" width="9.31852" height="7.80741" rx="2" fill="#67B6FF"/>
<rect x="382.333" y="54.1185" width="8.81481" height="17.8815" rx="2" fill="#67B6FF"/>
<rect x="382.333" y="38" width="8.81481" height="13.6" rx="2" fill="#00DCB3"/>
<rect x="393.667" y="48.0741" width="9.31852" height="23.9259" rx="2" fill="#00DCB3"/>
<rect x="371" y="48.0741" width="8.81481" height="23.9259" rx="2" fill="#00DCB3"/>
<defs>
<linearGradient id="paint0_linear_2_2" x1="450" y1="230" x2="450" y2="0" gradientUnits="userSpaceOnUse">
<stop/>
<stop offset="1" stop-color="#212121"/>
</linearGradient>
</defs>
</svg>
